<?xml version="1.0" encoding="UTF-8"?>
<svg id="Layer_1" data-name="Layer 1" xmlns="http://www.w3.org/2000/svg" version="1.1" viewBox="0 0 782.3 307">
  <defs>
    <style>
      .cls-1 {
        fill: #000;
        stroke-width: 0px;
      }
    </style>
  </defs>
  <path class="cls-1" d="M692.4,67.7h-353.4v6.1h353.4c4.3,0,8,3.7,8,8v143.2c0,4.3-3.7,8-8,8h-353.4v6.1h353.4c8,0,14.1-6.1,14.1-14.1V81.8c0-8-6.1-14.1-14.1-14.1Z"/>
  <path class="cls-1" d="M187.1,67.7h-100.2c-6.1,0-11.1,4.9-11.1,11.1v149.4c0,6.1,4.9,11.1,11.1,11.1h100.2c6.1,0,11.1-4.9,11.1-11.1V78.7c0-6.1-4.9-11.1-11.1-11.1ZM108.4,193.1v-12.3l28.9-27c2.5-2.5,4.3-4.3,6.1-6.1,1.8-1.8,3.1-3.7,3.7-5.5.6-1.8,1.2-3.7,1.2-6.1s0-4.3-1.8-6.1c-1.2-1.8-2.5-3.1-4.3-4.3-1.8-.6-4.3-1.2-6.1-1.2s-4.9,0-6.8,1.2c-1.8,1.2-3.1,2.5-4.3,4.3-1.2,1.8-1.2,4.3-1.2,6.8h-16.6c0-5.5,1.2-9.8,3.7-14.1,2.5-3.7,5.5-6.8,9.8-9.2,4.3-1.8,9.2-3.1,14.8-3.1s11.1,1.2,15.4,3.1c4.3,1.8,7.4,4.9,9.8,8.6s3.7,8,3.7,12.3,0,6.1-1.8,9.2c-1.2,3.1-3.1,6.1-6.1,9.8s-7.4,8-12.9,12.9l-11.7,11.7h34.4v15.4s-57.8,0-57.8,0Z"/>
  <path class="cls-1" d="M316.2,67.7h-100.8c-6.1,0-11.1,4.9-11.1,11.1v149.4c0,6.1,4.9,11.1,11.1,11.1h100.8c4.3,0,7.4-2.5,9.2-6.1.6-1.2,1.2-3.1,1.2-4.9V78.7c0-1.8,0-3.7-1.2-4.9-1.8-3.7-4.9-5.5-9.2-6.1ZM292.8,182.6c-2.5,3.7-6.1,6.1-11.1,8s-10.4,3.1-16,3.1-11.7-1.2-16.6-3.1-8.6-4.9-11.1-8c-2.5-3.7-4.3-7.4-4.3-11.7s.6-6.8,2.5-9.2c1.2-3.1,3.7-4.9,6.1-7.4s5.5-3.1,9.2-3.7c-4.3-1.2-8-3.7-10.4-6.8-2.5-3.1-4.3-7.4-4.3-11.7s1.2-8,3.7-11.1c2.5-3.1,6.1-6.1,10.4-8,4.3-1.8,9.2-3.1,14.8-3.1s10.4,1.2,14.8,3.1c4.3,1.8,7.4,4.3,9.8,8,2.5,3.7,3.7,6.8,3.7,11.1s-1.2,8.6-4.3,11.7c-2.5,3.1-6.1,5.5-10.4,6.1,3.1,1.2,6.1,2.5,8.6,4.3,2.5,1.8,4.9,4.3,6.1,7.4,1.8,3.1,2.5,6.1,2.5,9.2s-1.2,8.6-4.3,11.7h.6Z"/>
  <path class="cls-1" d="M273.8,159.3h-1.2c-1.8-1.2-4.3-1.8-6.8-1.8s-4.9,0-6.8,1.8c-1.8,1.2-3.7,2.5-4.9,4.3-1.2,1.8-1.8,3.7-1.8,6.1s0,4.3,1.8,6.1c1.2,1.8,2.5,3.1,4.9,4.3,1.8,1.2,4.3,1.2,7.4,1.2s4.9,0,7.4-1.2c1.8-1.2,3.7-2.5,4.9-4.3,1.2-1.8,1.8-3.7,1.8-6.1s0-4.3-1.8-6.1c-1.2-1.8-2.5-3.1-4.9-4.3Z"/>
  <path class="cls-1" d="M259,143.3c1.8.6,3.7,1.2,6.1,1.2s4.3,0,6.1-1.2c1.8-1.2,3.1-2.5,4.3-3.7,1.2-1.8,1.2-3.7,1.2-5.5s0-3.7-1.2-5.5c-1.2-1.8-2.5-3.1-4.3-3.7-1.8-.6-3.7-1.2-6.1-1.2s-4.3,0-6.1,1.2c-1.8.6-3.1,1.8-4.3,3.7-1.2,1.8-1.2,3.7-1.2,5.5s0,4.3,1.2,5.5c1.2,1.8,2.5,3.1,4.3,3.7Z"/>
  <polygon class="cls-1" points="430.5 167.9 429.9 167.9 415.2 111.3 398.6 111.3 383.8 167.9 383.2 167.9 369.7 111.3 351.2 111.3 374.6 193.1 391.2 193.1 406.6 139.6 407.2 139.6 422.5 193.1 439.8 193.1 463.1 111.3 444.1 111.3 430.5 167.9"/>
  <path class="cls-1" d="M487.7,111.3l-28.3,81.8h18.4l6.1-18.4h29.5l6.1,18.4h18.4l-28.3-81.8h-22.1ZM488.3,161.1l9.8-30.7,9.8,30.7h-19.7Z"/>
  <polygon class="cls-1" points="576.2 193.1 576.2 125.5 601.4 125.5 601.4 111.3 534.4 111.3 534.4 125.5 559.6 125.5 559.6 193.1 576.2 193.1"/>
  <polygon class="cls-1" points="651.2 193.1 651.2 125.5 676.4 125.5 676.4 111.3 609.4 111.3 609.4 125.5 634 125.5 634 193.1 651.2 193.1"/>
</svg>